<?xml version="1.0" encoding="UTF-8" standalone="no"?>
<!-- Created with Inkscape (http://www.inkscape.org/) -->

<svg
   xmlns:dc="http://purl.org/dc/elements/1.1/"
   xmlns:cc="http://creativecommons.org/ns#"
   xmlns:rdf="http://www.w3.org/1999/02/22-rdf-syntax-ns#"
   xmlns:svg="http://www.w3.org/2000/svg"
   xmlns="http://www.w3.org/2000/svg"
   xmlns:sodipodi="http://sodipodi.sourceforge.net/DTD/sodipodi-0.dtd"
   xmlns:inkscape="http://www.inkscape.org/namespaces/inkscape"
   version="1.1"
   id="svg2"
   xml:space="preserve"
   width="2294.1108"
   height="487.74475"
   viewBox="0 0 2294.1108 487.74475"
   sodipodi:docname="ccij-logo-horizontal.svg"
   inkscape:version="0.92.5 (2060ec1f9f, 2020-04-08)"><metadata
     id="metadata8"><rdf:RDF><cc:Work
         rdf:about=""><dc:format>image/svg+xml</dc:format><dc:type
           rdf:resource="http://purl.org/dc/dcmitype/StillImage" /><dc:title></dc:title></cc:Work></rdf:RDF></metadata><defs
     id="defs6"><clipPath
       clipPathUnits="userSpaceOnUse"
       id="clipPath18"><path
         d="M 0,1080 H 1920 V 0 H 0 Z"
         id="path16"
         inkscape:connector-curvature="0" /></clipPath><clipPath
       clipPathUnits="userSpaceOnUse"
       id="clipPath102"><path
         d="M 0,1080 H 1920 V 0 H 0 Z"
         id="path100"
         inkscape:connector-curvature="0" /></clipPath></defs><sodipodi:namedview
     pagecolor="#ffffff"
     bordercolor="#666666"
     borderopacity="1"
     objecttolerance="10"
     gridtolerance="10"
     guidetolerance="10"
     inkscape:pageopacity="0"
     inkscape:pageshadow="2"
     inkscape:window-width="1365"
     inkscape:window-height="737"
     id="namedview4"
     showgrid="false"
     fit-margin-top="0"
     fit-margin-left="0"
     fit-margin-right="0"
     fit-margin-bottom="0"
     inkscape:zoom="0.21599902"
     inkscape:cx="511.98925"
     inkscape:cy="102.7238"
     inkscape:window-x="0"
     inkscape:window-y="0"
     inkscape:window-maximized="0"
     inkscape:current-layer="g10" /><g
     id="g10"
     inkscape:groupmode="layer"
     inkscape:label="Horizontal logo"
     transform="matrix(1.3333333,0,0,-1.3333333,-130.61292,972.5887)"><g
       id="g12"><g
         id="g14"
         clip-path="url(#clipPath18)"><g
           id="g20"
           transform="translate(98.5048,575.2416)"><path
             d="m 0,0 13.719,-14.883 27.231,-9.48 c 6.052,-3.606 12.105,-7.211 18.157,-10.817 11.416,-0.841 22.832,-1.682 34.248,-2.523 5.409,-1.665 11.611,-3.224 18.522,-4.378 9.32,-1.556 17.738,-2.012 24.873,-1.948 1.099,0.439 2.269,0.998 3.468,1.715 4.637,2.77 7.407,6.527 8.949,9.132 1.519,1.963 3.455,5.118 3.425,8.992 -0.067,8.845 -10.326,14.313 -8.421,17.983 0.993,1.912 4.61,2.032 6.28,1.856 2.83,-0.299 3.855,-1.849 6.566,-3.426 6.124,-3.563 8.99,-0.363 14.272,-3.568 2.421,-1.468 2.087,-2.302 6.994,-7.993 0,0 3.323,-3.853 8.563,-8.848 3.549,-3.383 10.138,-8.908 21.219,-14.678 2.68,-0.804 6.861,-2.125 11.894,-4.02 11.953,-4.499 12.555,-6.148 16.598,-6.556 7.15,-0.723 10.99,3.799 25.039,13.166 9.22,6.149 17.095,10.446 22.083,13.02 10.935,1.864 21.87,3.729 32.806,5.594 2.859,6.029 5.718,12.059 8.577,18.088 -0.243,7.717 -4.139,87.414 -73.634,132.086 C 195.203,164.655 120.299,162.226 66.638,123.95 5.277,80.182 0.494,9.74 0,0"
             style="fill:#a73e23;fill-opacity:1;fill-rule:nonzero;stroke:none"
             id="path22"
             inkscape:connector-curvature="0" /></g><g
           id="g24"
           transform="translate(260.0233,549.7852)"><path
             d="m 0,0 c 0,0 0.306,-8.929 6.44,-13.903 5.14,-4.169 15.953,-4.746 18.819,-2.852 0,0 0.29,1.191 -0.923,1.344 -1.214,0.152 -13.605,2.611 -21.785,14.44 0,0 -2.635,4.03 -2.551,0.971"
             style="fill:#000000;fill-opacity:1;fill-rule:nonzero;stroke:none"
             id="path26"
             inkscape:connector-curvature="0" /></g><g
           id="g28"
           transform="translate(98.6122,575.39)"><path
             d="m 0,0 c 18.339,-12.544 35.016,-20.375 47.242,-25.262 23.791,-9.51 40.299,-11.676 58.66,-14.13 11.972,-1.6 29.248,-3.143 38.108,5.281 1.214,1.154 4.814,4.606 5.233,9.795 0.328,4.064 -1.319,9.434 -4.707,10.436 -2.156,0.638 -5.031,-0.604 -6.627,-1.293 -1.483,-0.64 -2.623,-1.378 -3.394,-1.939 -0.058,1.479 0.053,3.534 0.808,5.818 1.695,5.122 5.481,7.918 6.95,8.889 1.12,0.536 3.483,1.468 6.465,1.132 5.465,-0.616 8.438,-4.972 8.889,-5.657 2.013,0.661 5.101,1.352 8.566,0.646 8.084,-1.646 8.809,-9.601 18.263,-19.232 3.183,-3.243 13.83,-13.797 28.062,-13.948 1.094,-0.011 2.009,0.041 6.066,0.571 11.811,1.545 20.677,2.704 31.709,5.448 17.151,4.265 29.931,9.972 36.918,13.13 10.313,4.663 23.181,11.363 37.109,20.933 0.75,-4.164 1.258,-10.259 -0.547,-17.031 -5.084,-19.072 -24.448,-28.26 -38.084,-34.73 -26.726,-12.681 -52.925,-13.836 -70.982,-12.56 5.715,-3.829 15.448,-9.142 27.498,-10.086 4.458,-0.349 8.122,-0.014 8.992,0.071 6.27,0.614 11.373,2.305 18.768,5.495 7.079,3.054 11.732,5.527 17.984,8.778 23.078,11.999 24.878,12.189 25.833,11.347 3.174,-2.8 -3.199,-16.814 -11.418,-26.904 -2.585,-3.173 -18.838,-23.126 -41.248,-22.836 -4.586,0.059 -12.412,1.005 -20.624,4.281 -9.349,3.731 -16.032,9.218 -24.477,6.851 -0.849,-0.238 -2.269,-0.71 -3.854,-1.641 -6.742,-3.962 -7.69,-11.073 -11.204,-20.767 -1.312,-3.621 -4.776,-10.335 -11.703,-23.763 -3.621,-7.02 -6.749,-12.633 -8.778,-16.2 1.791,-1.845 4.34,-4.747 6.78,-8.706 0.861,-1.397 10.431,-17.186 5.637,-22.051 -2.085,-2.116 -6.678,-1.952 -9.562,-0.071 -3.688,2.403 -3.498,6.903 -5.781,17.055 -1.31,5.83 -2.769,10.555 -3.853,13.773 3.207,4.646 6.82,11.059 9.277,19.197 0.974,3.227 1.631,6.274 2.07,9.063 -2.969,-2.368 -6.425,-5.529 -9.849,-9.634 -3.951,-4.738 -6.686,-9.325 -8.563,-13.059 1.265,-4.708 2.997,-11.495 4.781,-19.768 0.859,-3.981 1.805,-8.39 2.712,-13.844 1.683,-10.116 4.744,-28.515 0.619,-30.068 -1.597,-0.6 -4.019,1.415 -4.377,1.713 -2.107,1.752 -2.681,4.171 -2.855,5.138 -0.85,-6.682 -2.9,-11.432 -4.662,-11.418 -1.777,0.014 -3.781,4.881 -4.472,11.799 -0.333,-1.386 -1.416,-5.073 -4.663,-6.708 -0.772,-0.39 -2.263,-1.141 -3.33,-0.714 -5.158,2.062 1.346,30.951 4.657,45.659 1.576,6.999 3.035,12.775 4.08,16.767 -2.566,5.184 -6.501,11.55 -12.543,17.69 -2.139,2.174 -4.276,4.05 -6.326,5.665 0.419,-2.389 0.989,-4.923 1.759,-7.568 2.506,-8.616 6.282,-15.5 9.775,-20.624 -0.978,-3.196 -2.365,-7.978 -3.776,-13.87 -2.658,-11.091 -2.857,-15.491 -6.57,-17.6 -2.858,-1.624 -7.143,-1.519 -9.134,0.571 -3.78,3.966 1.514,14.24 3.825,18.726 2.848,5.528 6.191,9.575 8.734,12.245 -3.191,5.372 -7.913,13.627 -13.098,23.998 -13.341,26.684 -12.729,33.338 -20.014,37.088 -13.802,7.107 -24.34,-11.579 -50.097,-9.848 -21.643,1.455 -35.994,18.628 -39.392,22.694 -8.206,9.819 -14.826,24.053 -11.561,26.975 1.954,1.748 6.736,-1.212 14.987,-5.566 16.785,-8.86 33.042,-17.44 44.958,-19.697 8.873,-1.68 22.132,-1.14 40.305,9.916 -16.627,-1.673 -40.412,-1.265 -65.425,9.21 -14.89,6.235 -39.63,16.596 -45.101,38.678 C -1.195,-9.72 -0.687,-3.895 0,0"
             style="fill:#000000;fill-opacity:1;fill-rule:nonzero;stroke:none"
             id="path30"
             inkscape:connector-curvature="0" /></g><g
           id="g32"
           transform="translate(212.8462,423.0781)"><path
             d="m 0,0 c -9.455,-9.857 -24.579,-6.873 -25.084,-11.247 -0.33,-2.856 5.855,-6.364 11.199,-7.476 12.132,-2.524 27.17,5.952 29.973,18.176 C 18.309,9.137 12.587,19.892 9.261,19.679 5.91,19.464 7.964,8.303 0,0"
             style="fill:#ffffff;fill-opacity:1;fill-rule:nonzero;stroke:none"
             id="path34"
             inkscape:connector-curvature="0" /></g><g
           id="g36"
           transform="translate(181.8041,434.9969)"><path
             d="M 0,0 C 20.988,7.305 29.361,25.807 33.129,23.42 36.461,21.308 33.021,4.869 22.426,-6.023 9.583,-19.225 -11.13,-21.557 -26.441,-15.606 -35.248,-12.183 -44.367,-5.204 -43.23,-2.04 -41.618,2.446 -21.873,-7.613 0,0"
             style="fill:#ffffff;fill-opacity:1;fill-rule:nonzero;stroke:none"
             id="path38"
             inkscape:connector-curvature="0" /></g><g
           id="g40"
           transform="translate(260.3428,550.8962)"><path
             d="m 0,0 c 0.67,0.274 2.027,-1.924 3.556,-3.879 1.623,-2.077 4.142,-4.777 8.04,-7.434 1.382,-0.975 3.132,-2.042 5.253,-2.99 2.714,-1.214 5.2,-1.861 7.167,-2.219 1.202,-0.483 1.237,-0.917 1.237,-1.014 0,-0.554 -1.142,-1.11 -2.869,-1.414 -0.783,-0.118 -11.462,-1.561 -17.859,5.455 C 0.919,-9.54 0.064,-4.421 -0.121,-3.313 -0.25,-2.545 -0.632,-0.258 0,0"
             style="fill:#000000;fill-opacity:1;fill-rule:nonzero;stroke:none"
             id="path42"
             inkscape:connector-curvature="0" /></g><g
           id="g44"
           transform="translate(236.4686,504.7183)"><path
             d="m 0,0 c 3.452,-4.064 7.408,-9.359 12.298,-18.263 3.728,-6.789 8.441,-16.458 12.6,-28.814 6.478,17.64 14.153,30.816 20.27,39.88 C 50.633,0.902 62.47,17.001 65.532,15.349 67.431,14.324 65.207,6.806 64.077,2.985 59.744,-11.666 52.699,-21.326 45.168,-31.925 40.735,-38.163 33.788,-48.027 25.089,-60.778 14.41,-49.316 6.86,-38.724 1.739,-30.69 c -2.163,3.395 -7.401,12.152 -12.573,24.22 -2.144,5.004 -7.698,17.964 -5.091,19.637 C -12.917,15.096 -0.773,0.909 0,0"
             style="fill:#ffffff;fill-opacity:1;fill-rule:nonzero;stroke:none"
             id="path46"
             inkscape:connector-curvature="0" /></g><g
           id="g48"
           transform="translate(261.3669,520.8212)"><path
             d="m 0,0 c -1.477,-2.015 -3.669,-4.581 -6.762,-7.057 -3.238,-2.594 -6.365,-4.209 -8.727,-5.213 2.625,-3.611 5.408,-7.968 8,-13.091 3.78,-7.47 6.066,-14.42 7.489,-20.121 1.121,5.049 2.962,11.28 6.087,18.061 2.875,6.237 6.091,11.325 8.97,15.273 -2.172,0.913 -4.971,2.348 -7.879,4.606 C 3.784,-4.906 1.477,-2.107 0,0"
             style="fill:#f27521;fill-opacity:1;fill-rule:nonzero;stroke:none"
             id="path50"
             inkscape:connector-curvature="0" /></g><g
           id="g52"
           transform="translate(204.1066,479.2898)"><path
             d="m 0,0 c 3.458,-3.997 -3.244,-18.926 -14.449,-28.225 -0.227,-0.189 -0.882,-0.719 -1.753,-1.376 -9.138,-6.901 -23.687,-11.953 -35.707,-9.719 -22.197,4.125 -36.226,33.351 -31.542,38.721 3.822,4.38 17.327,-10.966 41.783,-10.418 C -17.831,-10.483 -4.049,4.68 0,0"
             style="fill:#ffffff;fill-opacity:1;fill-rule:nonzero;stroke:none"
             id="path54"
             inkscape:connector-curvature="0" /></g><g
           id="g56"
           transform="translate(212.7968,423.2636)"><path
             d="m 0,0 c -9.455,-9.857 -24.579,-6.873 -25.084,-11.247 -0.33,-2.856 5.855,-6.364 11.199,-7.476 12.132,-2.524 27.17,5.952 29.973,18.177 C 18.309,9.137 12.587,19.892 9.261,19.679 5.91,19.464 7.964,8.303 0,0"
             style="fill:#000000;fill-opacity:1;fill-rule:nonzero;stroke:none"
             id="path58"
             inkscape:connector-curvature="0" /></g><g
           id="g60"
           transform="translate(181.7547,435.1824)"><path
             d="M 0,0 C 20.988,7.305 29.361,25.807 33.129,23.42 36.461,21.308 33.021,4.869 22.426,-6.023 9.583,-19.225 -11.13,-21.557 -26.441,-15.606 -35.248,-12.183 -44.367,-5.204 -43.23,-2.04 -41.618,2.446 -21.873,-7.613 0,0"
             style="fill:#000000;fill-opacity:1;fill-rule:nonzero;stroke:none"
             id="path62"
             inkscape:connector-curvature="0" /></g><g
           id="g64"
           transform="translate(204.0572,479.4754)"><path
             d="m 0,0 c 3.458,-3.997 -3.244,-18.926 -14.449,-28.225 -0.227,-0.189 -0.882,-0.719 -1.753,-1.376 -9.138,-6.901 -23.687,-11.953 -35.707,-9.719 -22.197,4.125 -36.226,33.351 -31.542,38.721 3.822,4.38 17.327,-10.966 41.783,-10.418 C -17.831,-10.483 -4.049,4.68 0,0"
             style="fill:#000000;fill-opacity:1;fill-rule:nonzero;stroke:none"
             id="path66"
             inkscape:connector-curvature="0" /></g><g
           id="g68"
           transform="translate(309.5045,423.7899)"><path
             d="m 0,0 c 9.39,-9.857 24.409,-6.873 24.911,-11.247 0.328,-2.856 -5.815,-6.364 -11.122,-7.476 -12.048,-2.524 -26.982,5.952 -29.766,18.176 -2.205,9.684 3.477,20.439 6.78,20.226 C -5.869,19.464 -7.909,8.303 0,0"
             style="fill:#000000;fill-opacity:1;fill-rule:nonzero;stroke:none"
             id="path70"
             inkscape:connector-curvature="0" /></g><g
           id="g72"
           transform="translate(340.3324,435.7087)"><path
             d="m 0,0 c -20.844,7.305 -29.158,25.807 -32.9,23.42 -3.309,-2.112 0.107,-18.551 10.629,-29.443 12.754,-13.202 33.324,-15.534 48.53,-9.583 8.746,3.423 17.802,10.402 16.672,13.566 C 41.331,2.446 21.722,-7.613 0,0"
             style="fill:#000000;fill-opacity:1;fill-rule:nonzero;stroke:none"
             id="path74"
             inkscape:connector-curvature="0" /></g><g
           id="g76"
           transform="translate(318.1837,480.0016)"><path
             d="m 0,0 c -3.434,-3.997 3.222,-18.926 14.349,-28.225 0.226,-0.189 0.876,-0.719 1.741,-1.376 9.076,-6.901 23.523,-11.953 35.461,-9.719 22.044,4.125 35.976,33.351 31.324,38.721 C 79.08,3.781 65.668,-11.565 41.381,-11.017 17.708,-10.483 4.021,4.68 0,0"
             style="fill:#000000;fill-opacity:1;fill-rule:nonzero;stroke:none"
             id="path78"
             inkscape:connector-curvature="0" /></g><g
           id="g80"
           transform="translate(248.4206,565.786)"><path
             d="m 0,0 c 1.315,0.054 3.607,-0.033 6.142,-1.131 1.616,-0.701 2.82,-1.592 3.633,-2.306 0.378,-0.685 1.132,-1.843 2.478,-2.856 1.419,-1.068 2.819,-1.466 3.595,-1.628 -0.183,1.155 -0.366,2.31 -0.55,3.465 0.67,-0.112 1.653,-0.347 2.713,-0.898 2.484,-1.291 3.705,-3.443 4.212,-4.303 3.695,-6.267 9.368,-11.501 10.182,-12.243 2.027,-1.846 3.677,-2.947 7.03,-5.091 3.816,-2.439 9.325,-5.556 16.533,-8.363 -3.203,-0.248 -9.133,-1.138 -15.414,-4.852 -5.383,-3.183 -8.75,-7.095 -10.573,-9.573 -4.439,3.653 -8.056,6.447 -10.425,8.243 -5.697,4.318 -9.187,6.663 -10.182,10.99 -0.008,0.033 -0.019,0.082 -0.033,0.147 -0.302,1.391 -0.273,3.352 0.356,3.813 0.981,0.717 4.763,-1.234 5.516,-3.434 0.994,-2.903 -2.549,-8.391 -20.142,-19.517 -2.208,2.297 -5.536,5.132 -10.182,7.031 -4.158,1.699 -7.929,2.059 -7.879,2.545 0.058,0.572 5.122,-0.399 10.667,0.849 10.453,2.352 15.504,14.346 15.879,15.273 0.897,2.217 2.692,6.851 1.697,12.849 C 4.339,-5.488 1.512,-1.735 0,0"
             style="fill:#ffffff;fill-opacity:1;fill-rule:nonzero;stroke:none"
             id="path82"
             inkscape:connector-curvature="0" /></g></g></g><g
       aria-label="CALIFORNIA 
COLLABORATIVE 
FOR IMMIGRANT JUSTICE"
       transform="matrix(1,0,0,-0.94354802,1043.6016,581.5439)"
       style="font-variant:normal;font-weight:normal;font-stretch:normal;font-size:63.03409958px;font-family:'Paytone One';-inkscape-font-specification:PaytoneOne-Regular;writing-mode:lr-tb;fill:#000000;fill-opacity:1;fill-rule:nonzero;stroke:none"
       id="text90"><path
         d="m 24.520265,1.0085456 q -6.30341,0 -11.472206,-2.9626027 -5.1057625,-3.0256368 -8.1313992,-8.1944329 -2.9626027,-5.23183 -2.9626027,-11.53524 0,-6.429478 2.8995686,-11.598275 2.8995685,-5.168796 7.9422963,-8.068364 5.042728,-2.962603 11.346138,-2.962603 3.403842,0 6.681615,0.819443 3.277773,0.819444 5.610035,2.332262 l -1.701921,9.770285 q -4.538455,-1.70192 -8.194433,-1.70192 -5.042728,0 -7.753194,2.962602 -2.710467,2.899569 -2.710467,8.383536 0,5.357898 2.836535,8.383535 2.899568,2.962603 8.005331,2.962603 1.954057,0 3.655977,-0.378205 1.701921,-0.378205 4.160251,-1.38675 l 1.764955,9.9593875 Q 31.012777,1.0085456 24.520265,1.0085456 Z"
         id="path922"
         inkscape:connector-curvature="0" /><path
         d="M 50.364247,-43.367461 H 69.526613 L 82.070399,0 H 67.257386 L 65.618499,-8.3205011 H 54.398429 L 52.57044,0 H 38.387768 Z m 13.741434,27.293766 -4.097217,-18.973264 -4.286319,18.973264 z"
         id="path924"
         inkscape:connector-curvature="0" /><path
         d="M 86.230647,-43.367461 H 99.846012 V -9.5811831 H 114.91116 V 0 H 86.230647 Z"
         id="path926"
         inkscape:connector-curvature="0" /><path
         d="m 120.14299,-43.367461 h 14.56088 V 0 h -14.56088 z"
         id="path928"
         inkscape:connector-curvature="0" /><path
         d="m 142.8983,-43.367461 h 29.87817 v 9.581184 h -16.32584 v 8.761739 h 15.12819 v 7.942297 H 156.45063 V 0 H 142.8983 Z"
         id="path930"
         inkscape:connector-curvature="0" /><path
         d="m 199.88114,1.0085456 q -6.80769,0 -12.10255,-2.8995686 -5.23183,-2.8995686 -8.19443,-8.0053306 -2.89957,-5.1687964 -2.89957,-11.7243424 0,-6.618581 2.89957,-11.787377 2.9626,-5.168796 8.19443,-8.00533 5.29486,-2.899569 12.10255,-2.899569 6.80768,0 12.03951,2.899569 5.29486,2.836534 8.19443,8.00533 2.9626,5.105762 2.9626,11.787377 0,6.555546 -2.9626,11.7243424 -2.89957,5.105762 -8.19443,8.0053306 -5.29487,2.8995686 -12.03951,2.8995686 z m 0,-11.4722066 q 3.97114,0 6.49251,-3.08867 2.5844,-3.088671 2.5844,-8.131399 0,-3.340808 -1.19765,-5.925206 -1.13462,-2.647432 -3.21474,-4.097216 -2.08013,-1.512818 -4.72756,-1.512818 -2.5844,0 -4.66452,1.512818 -2.08013,1.449784 -3.21474,4.097216 -1.13461,2.584398 -1.13461,5.925206 0,5.042728 2.52136,8.131399 2.52136,3.08867 6.55555,3.08867 z"
         id="path932"
         inkscape:connector-curvature="0" /><path
         d="m 261.96972,1.0085456 q -11.85041,0 -14.49784,-10.9679333 L 245.89603,-16.4519 h -2.96261 V 0 h -13.80447 v -43.367461 h 19.09934 q 5.42093,0 9.51815,1.638887 4.16025,1.575853 6.42947,4.475421 2.26923,2.899569 2.26923,6.681615 0,4.223284 -2.08012,7.122853 -2.01709,2.836534 -6.30341,4.664523 0.44124,2.395296 1.00854,4.349353 0.75641,2.395296 2.08013,3.340807 1.32371,0.945512 3.84508,0.945512 0.88247,0 2.7735,-0.252136 v 10.2745578 q -2.9626,1.1346138 -5.79914,1.1346138 z m -16.641,-26.2852196 q 4.66452,0 6.55554,-1.008546 1.95406,-1.071579 1.95406,-3.592943 0,-2.14316 -1.57585,-3.088671 -1.57585,-1.008546 -4.97969,-1.008546 h -4.34936 v 8.698706 z"
         id="path934"
         inkscape:connector-curvature="0" /><path
         d="m 273.12676,-43.367461 h 12.66985 l 17.27134,23.385651 v -23.385651 h 11.28311 V 0 H 301.74424 L 284.34683,-22.566208 V 0 h -11.22007 z"
         id="path936"
         inkscape:connector-curvature="0" /><path
         d="m 322.54549,-43.367461 h 14.56088 V 0 h -14.56088 z"
         id="path938"
         inkscape:connector-curvature="0" /><path
         d="M 353.49523,-43.367461 H 372.6576 L 385.20138,0 h -14.81301 l -1.63889,-8.3205011 H 357.52941 L 355.70143,0 h -14.18268 z m 13.74144,27.293766 -4.09722,-18.973264 -4.28632,18.973264 z"
         id="path940"
         inkscape:connector-curvature="0" /><path
         d="m 24.520265,76.649468 q -6.30341,0 -11.472206,-2.962603 Q 7.9422965,70.661229 4.9166598,65.492433 1.9540571,60.260602 1.9540571,53.957192 q 0,-6.429478 2.8995686,-11.598274 2.8995685,-5.168796 7.9422963,-8.068365 5.042728,-2.962602 11.346138,-2.962602 3.403842,0 6.681615,0.819443 3.277773,0.819443 5.610035,2.332262 l -1.701921,9.770285 q -4.538455,-1.701921 -8.194433,-1.701921 -5.042728,0 -7.753194,2.962603 -2.710467,2.899569 -2.710467,8.383535 0,5.357899 2.836535,8.383535 2.899568,2.962603 8.005331,2.962603 1.954057,0 3.655977,-0.378204 1.701921,-0.378205 4.160251,-1.386751 l 1.764955,9.959388 q -5.483967,3.214739 -11.976479,3.214739 z"
         id="path942"
         inkscape:connector-curvature="0" /><path
         d="m 62.40376,76.649468 q -6.807682,0 -12.102547,-2.899568 -5.23183,-2.899569 -8.194433,-8.005331 -2.899568,-5.168796 -2.899568,-11.724343 0,-6.61858 2.899568,-11.787376 2.962603,-5.168796 8.194433,-8.005331 5.294865,-2.899568 12.102547,-2.899568 6.807683,0 12.039514,2.899568 5.294864,2.836535 8.194432,8.005331 2.962603,5.105762 2.962603,11.787376 0,6.555547 -2.962603,11.724343 -2.899568,5.105762 -8.194432,8.005331 -5.294865,2.899568 -12.039514,2.899568 z m 0,-11.472206 q 3.971149,0 6.492513,-3.088671 2.584398,-3.088671 2.584398,-8.131399 0,-3.340807 -1.197648,-5.925205 -1.134614,-2.647432 -3.214739,-4.097217 -2.080125,-1.512818 -4.727558,-1.512818 -2.584398,0 -4.664523,1.512818 -2.080125,1.449785 -3.214739,4.097217 -1.134614,2.584398 -1.134614,5.925205 0,5.042728 2.521364,8.131399 2.521364,3.088671 6.555546,3.088671 z"
         id="path944"
         inkscape:connector-curvature="0" /><path
         d="m 91.651584,32.273462 h 13.615366 v 33.786277 h 15.06515 v 9.581184 H 91.651584 Z"
         id="path946"
         inkscape:connector-curvature="0" /><path
         d="m 125.56393,32.273462 h 13.61536 v 33.786277 h 15.06515 v 9.581184 h -28.68051 z"
         id="path948"
         inkscape:connector-curvature="0" /><path
         d="m 167.67071,32.273462 h 19.16236 l 12.54379,43.367461 h -14.81301 l -1.63889,-8.320502 h -11.22007 l -1.82799,8.320502 h -14.18267 z m 13.74143,27.293765 -4.09721,-18.973264 -4.28632,18.973264 z"
         id="path950"
         inkscape:connector-curvature="0" /><path
         d="m 219.92598,76.397332 q -3.90812,0 -7.24892,-0.126068 -3.34081,-0.126069 -9.13995,-0.567307 V 32.273462 h 21.68373 q 4.60149,0 8.25747,1.323716 3.71901,1.260682 5.79914,3.655978 2.08012,2.395296 2.08012,5.547001 0,3.908114 -1.70192,6.177341 -1.70192,2.206194 -5.1688,3.088671 8.82478,1.38675 8.82478,10.400627 0,6.240376 -5.7361,10.085456 -5.67307,3.84508 -17.64955,3.84508 z m 2.64743,-26.978595 q 2.45833,0 4.03418,-1.197648 1.63889,-1.197648 1.63889,-3.088671 0,-4.475421 -5.547,-4.475421 h -5.10576 v 8.76174 z m -0.25214,17.082241 q 3.46688,0 5.29487,-1.260682 1.89102,-1.323716 1.89102,-3.655978 0,-2.521364 -1.70192,-3.84508 -1.70192,-1.38675 -4.85363,-1.38675 h -5.42093 v 9.959388 q 2.83654,0.189102 4.79059,0.189102 z"
         id="path952"
         inkscape:connector-curvature="0" /><path
         d="m 270.03809,76.649468 q -6.80769,0 -12.10255,-2.899568 -5.23183,-2.899569 -8.19443,-8.005331 -2.89957,-5.168796 -2.89957,-11.724343 0,-6.61858 2.89957,-11.787376 2.9626,-5.168796 8.19443,-8.005331 5.29486,-2.899568 12.10255,-2.899568 6.80768,0 12.03951,2.899568 5.29486,2.836535 8.19443,8.005331 2.96261,5.105762 2.96261,11.787376 0,6.555547 -2.96261,11.724343 -2.89957,5.105762 -8.19443,8.005331 -5.29486,2.899568 -12.03951,2.899568 z m 0,-11.472206 q 3.97115,0 6.49251,-3.088671 2.5844,-3.088671 2.5844,-8.131399 0,-3.340807 -1.19765,-5.925205 -1.13461,-2.647432 -3.21474,-4.097217 -2.08012,-1.512818 -4.72756,-1.512818 -2.58439,0 -4.66452,1.512818 -2.08013,1.449785 -3.21474,4.097217 -1.13461,2.584398 -1.13461,5.925205 0,5.042728 2.52136,8.131399 2.52137,3.088671 6.55555,3.088671 z"
         id="path954"
         inkscape:connector-curvature="0" /><path
         d="m 332.12667,76.649468 q -11.85041,0 -14.49784,-10.967933 l -1.57585,-6.492512 h -2.96261 v 16.4519 H 299.28591 V 32.273462 h 19.09933 q 5.42093,0 9.51815,1.638887 4.16025,1.575852 6.42948,4.475421 2.26922,2.899568 2.26922,6.681614 0,4.223285 -2.08012,7.122854 -2.01709,2.836534 -6.30341,4.664523 0.44124,2.395296 1.00854,4.349353 0.75641,2.395296 2.08013,3.340807 1.32372,0.945512 3.84508,0.945512 0.88248,0 2.7735,-0.252137 v 10.274558 q -2.9626,1.134614 -5.79914,1.134614 z m -16.641,-26.285219 q 4.66452,0 6.55555,-1.008546 1.95405,-1.07158 1.95405,-3.592944 0,-2.143159 -1.57585,-3.088671 -1.57585,-1.008545 -4.97969,-1.008545 h -4.34936 v 8.698706 z"
         id="path956"
         inkscape:connector-curvature="0" /><path
         d="m 351.47814,32.273462 h 19.16237 l 12.54378,43.367461 h -14.81301 l -1.63889,-8.320502 h -11.22007 l -1.82798,8.320502 h -14.18268 z m 13.74144,27.293765 -4.09722,-18.973264 -4.28632,18.973264 z"
         id="path958"
         inkscape:connector-curvature="0" /><path
         d="m 390.93748,41.854645 h -9.01388 v -9.581183 h 32.7147 v 9.581183 h -9.01388 v 33.786278 h -14.68694 z"
         id="path960"
         inkscape:connector-curvature="0" /><path
         d="M 420.56353,32.273462 H 435.1244 V 75.640923 H 420.56353 Z"
         id="path962"
         inkscape:connector-curvature="0" /><path
         d="m 439.34769,32.273462 h 14.2457 l 6.68162,27.041629 6.68161,-27.041629 h 14.87605 l -13.55233,43.367461 h -16.0737 z"
         id="path964"
         inkscape:connector-curvature="0" /><path
         d="m 485.67775,32.273462 h 30.44547 v 9.581183 h -15.12818 v 7.879263 h 13.80447 v 7.942296 h -13.80447 v 8.383535 h 15.12818 v 9.581184 h -30.44547 z"
         id="path966"
         inkscape:connector-curvature="0" /><path
         d="M 4.0972165,107.91438 H 33.97538 v 9.58119 H 17.649548 v 8.76174 h 15.128184 v 7.94229 H 17.649548 v 17.08225 H 4.0972165 Z"
         id="path968"
         inkscape:connector-curvature="0" /><path
         d="m 61.080041,152.29039 q -6.807682,0 -12.102547,-2.89957 -5.23183,-2.89957 -8.194433,-8.00533 -2.899568,-5.16879 -2.899568,-11.72434 0,-6.61858 2.899568,-11.78738 2.962603,-5.16879 8.194433,-8.00533 5.294865,-2.89957 12.102547,-2.89957 6.807683,0 12.039513,2.89957 5.294865,2.83654 8.194433,8.00533 2.962603,5.10576 2.962603,11.78738 0,6.55555 -2.962603,11.72434 -2.899568,5.10576 -8.194433,8.00533 -5.294864,2.89957 -12.039513,2.89957 z m 0,-11.47221 q 3.971149,0 6.492513,-3.08867 2.584398,-3.08867 2.584398,-8.1314 0,-3.3408 -1.197648,-5.9252 -1.134614,-2.64743 -3.214739,-4.09722 -2.080125,-1.51282 -4.727558,-1.51282 -2.584398,0 -4.664523,1.51282 -2.080125,1.44979 -3.214739,4.09722 -1.134614,2.5844 -1.134614,5.9252 0,5.04273 2.521364,8.1314 2.521364,3.08867 6.555546,3.08867 z"
         id="path970"
         inkscape:connector-curvature="0" /><path
         d="m 123.16863,152.29039 q -11.85041,0 -14.49784,-10.96793 l -1.57585,-6.49251 h -2.9626 v 16.4519 H 90.327868 V 107.91438 H 109.4272 q 5.42093,0 9.51815,1.63889 4.16025,1.57585 6.42948,4.47542 2.26923,2.89957 2.26923,6.68162 0,4.22328 -2.08013,7.12285 -2.01709,2.83653 -6.30341,4.66452 0.44124,2.3953 1.00855,4.34936 0.7564,2.39529 2.08012,3.3408 1.32372,0.94552 3.84508,0.94552 0.88248,0 2.7735,-0.25214 v 10.27456 q -2.9626,1.13461 -5.79914,1.13461 z m -16.641,-26.28522 q 4.66453,0 6.55555,-1.00854 1.95406,-1.07158 1.95406,-3.59295 0,-2.14316 -1.57586,-3.08867 -1.57585,-1.00854 -4.97969,-1.00854 h -4.34935 v 8.6987 z"
         id="path972"
         inkscape:connector-curvature="0" /><path
         d="m 146.11304,107.91438 h 14.56088 v 43.36747 h -14.56088 z"
         id="path974"
         inkscape:connector-curvature="0" /><path
         d="m 168.86835,107.91438 h 13.11109 l 10.84187,21.05339 10.58973,-21.05339 h 13.11109 v 43.36747 h -13.11109 v -23.13352 l -8.00533,15.12818 h -5.3579 l -8.06837,-15.12818 v 23.13352 h -13.11109 z"
         id="path976"
         inkscape:connector-curvature="0" /><path
         d="m 224.7796,107.91438 h 13.1111 l 10.84186,21.05339 10.58973,-21.05339 h 13.11109 v 43.36747 h -13.11109 v -23.13352 l -8.00533,15.12818 h -5.3579 l -8.06836,-15.12818 v 23.13352 h -13.1111 z"
         id="path978"
         inkscape:connector-curvature="0" /><path
         d="m 280.69084,107.91438 h 14.56088 v 43.36747 h -14.56088 z"
         id="path980"
         inkscape:connector-curvature="0" /><path
         d="m 323.61707,152.29039 q -6.36645,0 -11.47221,-3.02564 -5.10576,-3.08867 -8.00533,-8.38353 -2.89957,-5.29487 -2.89957,-11.66131 0,-6.11431 2.89957,-11.22007 2.9626,-5.10576 8.19443,-8.06836 5.23183,-2.96261 11.91345,-2.96261 3.65598,0 7.05982,0.81945 3.46687,0.81944 6.24037,2.33226 l -4.16025,9.77028 q -4.28632,-1.76495 -8.00533,-1.76495 -4.85362,0 -7.50106,3.1517 -2.64743,3.08867 -2.64743,8.1314 0,3.27778 1.19765,5.92521 1.19765,2.5844 3.34081,4.09721 2.20619,1.51282 4.97969,1.51282 1.51282,0 2.52136,-0.25213 v -10.14849 l 10.9049,-1.26069 v 19.72968 q -7.12285,3.27777 -14.56087,3.27777 z"
         id="path982"
         inkscape:connector-curvature="0" /><path
         d="m 377.82641,152.29039 q -11.85041,0 -14.49784,-10.96793 l -1.57586,-6.49251 h -2.9626 v 16.4519 h -13.80447 v -43.36747 h 19.09934 q 5.42093,0 9.51815,1.63889 4.16025,1.57585 6.42947,4.47542 2.26923,2.89957 2.26923,6.68162 0,4.22328 -2.08012,7.12285 -2.0171,2.83653 -6.30341,4.66452 0.44123,2.3953 1.00854,4.34936 0.75641,2.39529 2.08013,3.3408 1.32371,0.94552 3.84508,0.94552 0.88247,0 2.7735,-0.25214 v 10.27456 q -2.96261,1.13461 -5.79914,1.13461 z m -16.641,-26.28522 q 4.66452,0 6.55554,-1.00854 1.95406,-1.07158 1.95406,-3.59295 0,-2.14316 -1.57585,-3.08867 -1.57585,-1.00854 -4.9797,-1.00854 h -4.34935 v 8.6987 z"
         id="path984"
         inkscape:connector-curvature="0" /><path
         d="m 397.17785,107.91438 h 19.16237 l 12.54378,43.36747 h -14.81301 l -1.63889,-8.32051 h -11.22007 l -1.82799,8.32051 h -14.18267 z m 13.74143,27.29377 -4.09721,-18.97326 -4.28632,18.97326 z"
         id="path986"
         inkscape:connector-curvature="0" /><path
         d="m 433.04427,107.91438 h 12.66985 l 17.27135,23.38566 v -23.38566 h 11.2831 v 43.36747 h -12.60682 l -17.39741,-22.56621 v 22.56621 h -11.22007 z"
         id="path988"
         inkscape:connector-curvature="0" /><path
         d="m 489.20765,117.49557 h -9.01388 v -9.58119 h 32.7147 v 9.58119 h -9.01388 v 33.78628 h -14.68694 z"
         id="path990"
         inkscape:connector-curvature="0" /><path
         d="m 537.3027,154.11838 q -5.79914,0 -10.84187,-3.34081 l 2.9626,-7.81623 q 2.52137,0.88248 4.28632,0.88248 4.22329,0 4.22329,-5.23183 v -30.69761 h 13.55233 v 30.69761 q 0,7.24892 -3.78205,11.40917 -3.78204,4.09722 -10.40062,4.09722 z"
         id="path992"
         inkscape:connector-curvature="0" /><path
         d="m 580.73319,152.29039 q -6.24038,0 -11.15704,-2.3953 -4.85362,-2.39529 -7.56409,-6.68161 -2.71047,-4.34935 -2.71047,-9.89635 v -25.40275 h 14.24571 v 25.40275 q 0,3.78204 1.82799,5.67307 1.82799,1.89102 5.3579,1.89102 3.52991,0 5.35789,-1.89102 1.82799,-1.95406 1.82799,-5.67307 v -25.40275 h 14.24571 v 25.40275 q 0,5.547 -2.71047,9.89635 -2.71046,4.28632 -7.62712,6.68161 -4.85363,2.3953 -11.094,2.3953 z"
         id="path994"
         inkscape:connector-curvature="0" /><path
         d="m 623.40727,152.29039 q -8.88781,0 -15.00212,-3.27777 l 3.15171,-9.77029 q 6.49251,2.33226 11.59827,2.33226 2.7735,0 4.03418,-0.63034 1.32372,-0.69337 1.32372,-2.01709 0,-0.88248 -0.69337,-1.51282 -0.69338,-0.69337 -2.7735,-1.51282 -2.08013,-0.81944 -6.24038,-2.01709 -5.10576,-1.51281 -7.9423,-4.91666 -2.83653,-3.46687 -2.83653,-7.94229 0,-6.93375 4.53845,-10.46366 4.60149,-3.59295 12.35469,-3.59295 4.03418,0 7.94229,0.88248 3.90812,0.81944 6.93375,2.45833 l -3.40384,9.51815 q -3.52991,-1.19765 -6.17734,-1.70192 -2.5844,-0.56731 -5.04273,-0.56731 -4.16025,0 -4.16025,2.26923 0,1.13461 1.32372,1.95406 1.38675,0.75641 5.61003,1.95405 6.61858,1.76496 10.02243,5.42094 3.40384,3.59294 3.40384,8.63567 0,6.99678 -4.53846,10.77883 -4.53845,3.71901 -13.42626,3.71901 z"
         id="path996"
         inkscape:connector-curvature="0" /><path
         d="m 654.04182,117.49557 h -9.01388 v -9.58119 h 32.7147 v 9.58119 h -9.01388 v 33.78628 h -14.68694 z"
         id="path998"
         inkscape:connector-curvature="0" /><path
         d="m 683.66783,107.91438 h 14.56088 v 43.36747 h -14.56088 z"
         id="path1000"
         inkscape:connector-curvature="0" /><path
         d="m 726.84619,152.29039 q -6.30341,0 -11.4722,-2.9626 -5.10577,-3.02564 -8.1314,-8.19443 -2.96261,-5.23184 -2.96261,-11.53525 0,-6.42947 2.89957,-11.59827 2.89957,-5.1688 7.9423,-8.06836 5.04273,-2.96261 11.34614,-2.96261 3.40384,0 6.68161,0.81945 3.27778,0.81944 5.61004,2.33226 l -1.70192,9.77028 q -4.53846,-1.70192 -8.19444,-1.70192 -5.04272,0 -7.75319,2.96261 -2.71047,2.89956 -2.71047,8.38353 0,5.3579 2.83654,8.38354 2.89957,2.9626 8.00533,2.9626 1.95406,0 3.65598,-0.37821 1.70192,-0.3782 4.16025,-1.38675 l 1.76495,9.95939 q -5.48397,3.21474 -11.97648,3.21474 z"
         id="path1002"
         inkscape:connector-curvature="0" /><path
         d="m 744.49578,107.91438 h 30.44547 v 9.58119 h -15.12819 v 7.87926 h 13.80447 v 7.9423 h -13.80447 v 8.38353 h 15.12819 v 9.58119 h -30.44547 z"
         id="path1004"
         inkscape:connector-curvature="0" /></g><g
       aria-label="CCIJ"
       transform="matrix(1,0,0,-0.94354766,451.3765,451.2666)"
       style="font-variant:normal;font-weight:normal;font-stretch:normal;font-size:258.04598999px;font-family:'Paytone One';-inkscape-font-specification:PaytoneOne-Regular;writing-mode:lr-tb;fill:#000000;fill-opacity:1;fill-rule:nonzero;stroke:none"
       id="text94"><path
         d="m 100.37989,4.1287358 q -25.804599,0 -46.96437,-12.1281615 Q 32.513795,-20.385633 20.127587,-41.545404 7.9994257,-62.963222 7.9994257,-88.767821 q 0,-26.320689 11.8701153,-47.480459 11.870116,-21.15977 32.513795,-33.02989 20.643679,-12.12816 46.448278,-12.12816 13.934486,0 27.352876,3.3546 13.41839,3.35459 22.96609,9.5477 l -6.96724,39.99713 q -18.57931,-6.96724 -33.54598,-6.96724 -20.643677,0 -31.739655,12.12816 -11.095978,11.87011 -11.095978,34.320113 0,21.93391 11.61207,34.320117 11.870116,12.128162 32.771843,12.128162 7.99942,0 14.96667,-1.548276 6.96724,-1.548276 17.03103,-5.677012 l 7.22529,40.7712664 q -22.45,13.1603454 -49.02874,13.1603454 z"
         id="path913"
         inkscape:connector-curvature="0" /><path
         d="m 252.88508,4.1287358 q -25.8046,0 -46.96437,-12.1281615 -20.90173,-12.3862073 -33.28793,-33.5459783 -12.12817,-21.417818 -12.12817,-47.222417 0,-26.320689 11.87012,-47.480459 11.87011,-21.15977 32.51379,-33.02989 20.64368,-12.12816 46.44828,-12.12816 13.93449,0 27.35288,3.3546 13.41839,3.35459 22.96609,9.5477 l -6.96724,39.99713 q -18.57931,-6.96724 -33.54598,-6.96724 -20.64368,0 -31.73966,12.12816 -11.09597,11.87011 -11.09597,34.320113 0,21.93391 11.61206,34.320117 11.87012,12.128162 32.77185,12.128162 7.99942,0 14.96666,-1.548276 6.96724,-1.548276 17.03104,-5.677012 l 7.22529,40.7712664 q -22.45,13.1603454 -49.02874,13.1603454 z"
         id="path915"
         inkscape:connector-curvature="0" /><path
         d="m 325.13795,-177.53564 h 59.60862 V 0 h -59.60862 z"
         id="path917"
         inkscape:connector-curvature="0" /><path
         d="m 445.64543,11.61207 q -23.74024,0 -44.38391,-13.6764379 l 12.12816,-31.9977031 q 10.32184,3.612644 17.54712,3.612644 17.28909,0 17.28909,-21.417817 V -177.53564 h 55.47988 v 125.668396 q 0,29.675289 -15.48276,46.7063242 Q 472.74026,11.61207 445.64543,11.61207 Z"
         id="path919"
         inkscape:connector-curvature="0" /></g><g
       id="g96"><g
         id="g98"
         clip-path="url(#clipPath102)"><g
           id="g104"
           transform="translate(1002.9946,622.1927)"><path
             d="M 0,0 V -183.214"
             style="fill:#000000;fill-opacity:1;fill-rule:nonzero;stroke:#231f20;stroke-width:6;stroke-linecap:butt;stroke-linejoin:miter;stroke-miterlimit:10;stroke-dasharray:none;stroke-opacity:1"
             id="path106"
             inkscape:connector-curvature="0" /></g></g></g></g></svg>