<?xml version="1.0" encoding="UTF-8" standalone="no"?>
<!-- Created with Inkscape (http://www.inkscape.org/) -->

<svg
   xmlns:dc="http://purl.org/dc/elements/1.1/"
   xmlns:cc="http://creativecommons.org/ns#"
   xmlns:rdf="http://www.w3.org/1999/02/22-rdf-syntax-ns#"
   xmlns:svg="http://www.w3.org/2000/svg"
   xmlns="http://www.w3.org/2000/svg"
   xmlns:sodipodi="http://sodipodi.sourceforge.net/DTD/sodipodi-0.dtd"
   xmlns:inkscape="http://www.inkscape.org/namespaces/inkscape"
   version="1.1"
   id="svg2"
   xml:space="preserve"
   width="607.27618"
   height="681.5448"
   viewBox="0 0 607.27618 681.5448"
   sodipodi:docname="ccij-logo.svg"
   inkscape:version="0.92.5 (2060ec1f9f, 2020-04-08)"><metadata
     id="metadata8"><rdf:RDF><cc:Work
         rdf:about=""><dc:format>image/svg+xml</dc:format><dc:type
           rdf:resource="http://purl.org/dc/dcmitype/StillImage" /><dc:title></dc:title></cc:Work></rdf:RDF></metadata><defs
     id="defs6"><clipPath
       clipPathUnits="userSpaceOnUse"
       id="clipPath18"><path
         d="M 0,0 H 1920 V 1080 H 0 Z"
         id="path16"
         inkscape:connector-curvature="0" /></clipPath></defs><sodipodi:namedview
     pagecolor="#ffffff"
     bordercolor="#666666"
     borderopacity="1"
     objecttolerance="10"
     gridtolerance="10"
     guidetolerance="10"
     inkscape:pageopacity="0"
     inkscape:pageshadow="2"
     inkscape:window-width="1486"
     inkscape:window-height="847"
     id="namedview4"
     showgrid="false"
     fit-margin-top="0"
     fit-margin-left="0"
     fit-margin-right="0"
     fit-margin-bottom="0"
     inkscape:zoom="0.16388889"
     inkscape:cx="-485.81864"
     inkscape:cy="496.82927"
     inkscape:window-x="0"
     inkscape:window-y="0"
     inkscape:window-maximized="0"
     inkscape:current-layer="g10" /><g
     id="g10"
     inkscape:groupmode="layer"
     inkscape:label="Brand Book 02.01.2022"
     transform="matrix(1.3333333,0,0,-1.3333333,-975.64915,904.71551)"><g
       id="g12"><g
         id="g14"
         clip-path="url(#clipPath18)"><g
           id="g20"
           transform="translate(0.4009,1079.4877)" /><g
           id="g24"
           transform="translate(0.4009,1079.4877)" /><g
           id="g28"
           transform="translate(1110.4849,605.5575)" /><g
           id="g32"
           transform="translate(1110.4849,605.5575)" /><g
           id="g36"
           transform="translate(960.5616,1084.7412)" /><g
           id="g40"
           transform="translate(2.1152,1079.0885)" /><g
           id="g44"
           transform="translate(732.6119,463.067)"><path
             d="m 0,0 19.17,-20.796 38.051,-13.248 c 8.457,-5.038 16.915,-10.076 25.372,-15.114 15.952,-1.176 31.904,-2.351 47.856,-3.526 7.559,-2.327 16.223,-4.504 25.882,-6.117 13.022,-2.175 24.785,-2.812 34.755,-2.722 1.536,0.613 3.171,1.394 4.846,2.396 6.479,3.871 10.35,9.12 12.505,12.761 2.122,2.742 4.828,7.151 4.786,12.564 -0.094,12.36 -14.43,20.001 -11.766,25.129 1.387,2.671 6.44,2.839 8.775,2.593 3.954,-0.418 5.386,-2.583 9.174,-4.787 8.558,-4.979 12.562,-0.508 19.943,-4.986 3.382,-2.051 2.916,-3.216 9.773,-11.168 0,0 4.644,-5.385 11.966,-12.365 4.958,-4.727 14.166,-12.447 29.65,-20.51 3.745,-1.123 9.587,-2.969 16.619,-5.616 16.703,-6.287 17.544,-8.592 23.194,-9.163 9.99,-1.009 15.356,5.309 34.987,18.399 12.884,8.591 23.887,14.596 30.858,18.193 15.28,2.605 30.56,5.21 45.841,7.816 3.995,8.425 7.99,16.851 11.985,25.276 C 453.883,5.792 448.438,117.156 351.331,179.577 272.766,230.079 168.099,226.685 93.115,173.2 7.374,112.042 0.691,13.61 0,0"
             style="fill:#a6331f;fill-opacity:1;fill-rule:nonzero;stroke:none"
             id="path46"
             inkscape:connector-curvature="0" /></g><g
           id="g48"
           transform="translate(958.3082,427.4957)"><path
             d="m 0,0 c 0,0 0.428,-12.476 8.999,-19.428 7.182,-5.825 22.292,-6.63 26.296,-3.985 0,0 0.406,1.665 -1.29,1.878 -1.696,0.213 -19.01,3.649 -30.44,20.178 0,0 -3.682,5.631 -3.565,1.357"
             style="fill:#100f0d;fill-opacity:1;fill-rule:nonzero;stroke:none"
             id="path50"
             inkscape:connector-curvature="0" /></g><g
           id="g52"
           transform="translate(732.6639,464.0831)"><path
             d="m 0,0 c 25.839,-18.324 49.198,-29.386 66.111,-36.109 13.812,-5.491 25.442,-8.987 32.649,-10.887 17.601,-4.641 32.932,-6.667 49.32,-8.857 16.728,-2.236 40.868,-4.392 53.249,7.379 1.697,1.613 6.726,6.436 7.312,13.687 0.458,5.679 -1.843,13.183 -6.577,14.583 -3.013,0.892 -7.03,-0.843 -9.26,-1.806 -2.073,-0.896 -3.666,-1.926 -4.743,-2.71 -0.081,2.067 0.074,4.938 1.13,8.13 2.367,7.157 7.658,11.063 9.711,12.421 1.564,0.749 4.866,2.05 9.033,1.581 7.637,-0.86 11.791,-6.948 12.422,-7.905 2.812,0.925 7.127,1.89 11.969,0.904 11.296,-2.3 12.309,-13.417 25.52,-26.875 4.447,-4.531 19.326,-19.279 39.212,-19.489 1.529,-0.016 2.807,0.057 8.476,0.798 16.504,2.158 28.893,3.778 44.308,7.612 23.035,5.729 40.543,13.39 51.588,18.348 14.451,6.486 32.624,15.833 52.422,29.197 0.858,-5.77 1.342,-14.287 -1.333,-23.746 -7.573,-26.77 -34.337,-39.571 -53.217,-48.529 -37.345,-17.72 -73.954,-19.334 -99.186,-17.551 7.986,-5.35 21.587,-12.774 38.425,-14.093 6.229,-0.489 11.349,-0.02 12.564,0.099 8.762,0.858 15.893,3.221 26.226,7.679 9.892,4.266 16.393,7.723 25.129,12.265 32.248,16.767 34.764,17.032 36.098,15.855 4.435,-3.911 -4.47,-23.494 -15.955,-37.594 -3.612,-4.434 -26.323,-32.314 -57.637,-31.909 -6.409,0.083 -17.343,1.404 -28.818,5.983 -13.065,5.212 -22.402,12.88 -34.204,9.573 -1.186,-0.333 -3.17,-0.993 -5.384,-2.294 -9.422,-5.536 -10.746,-15.472 -15.656,-29.018 -1.834,-5.06 -6.674,-14.442 -16.354,-33.206 -5.06,-9.809 -9.43,-17.652 -12.265,-22.636 2.502,-2.579 6.064,-6.634 9.473,-12.165 1.203,-1.952 14.576,-24.015 7.878,-30.813 -2.914,-2.957 -9.332,-2.727 -13.362,-0.1 -5.153,3.359 -4.888,9.647 -8.078,23.833 -1.831,8.146 -3.869,14.748 -5.384,19.245 4.481,6.492 9.529,15.453 12.963,26.824 1.362,4.51 2.279,8.768 2.892,12.665 -4.148,-3.309 -8.977,-7.726 -13.761,-13.462 -5.522,-6.621 -9.343,-13.03 -11.967,-18.249 1.768,-6.578 4.188,-16.062 6.682,-27.622 1.2,-5.562 2.521,-11.723 3.789,-19.345 2.352,-14.135 6.629,-39.845 0.864,-42.014 -2.23,-0.84 -5.615,1.976 -6.116,2.393 -2.944,2.448 -3.746,5.828 -3.989,7.18 -1.187,-9.338 -4.053,-15.975 -6.514,-15.955 -2.484,0.02 -5.284,6.82 -6.25,16.486 -0.465,-1.935 -1.978,-7.088 -6.514,-9.373 -1.08,-0.544 -3.163,-1.593 -4.654,-0.997 -7.208,2.881 1.881,43.248 6.508,63.802 2.202,9.779 4.24,17.85 5.7,23.429 -3.585,7.243 -9.083,16.138 -17.526,24.719 -2.989,3.037 -5.976,5.658 -8.84,7.914 0.586,-3.337 1.383,-6.878 2.458,-10.573 3.502,-12.04 8.778,-21.659 13.66,-28.82 -1.367,-4.466 -3.305,-11.148 -5.278,-19.381 -3.713,-15.497 -3.992,-21.646 -9.18,-24.594 -3.993,-2.268 -9.981,-2.122 -12.764,0.798 -5.281,5.543 2.116,19.899 5.345,26.167 3.98,7.725 8.652,13.38 12.206,17.111 -4.46,7.506 -11.058,19.041 -18.304,33.533 -18.641,37.287 -17.786,46.584 -27.966,51.825 -19.286,9.93 -34.011,-16.18 -70.002,-13.761 -30.242,2.033 -50.296,26.03 -55.044,31.711 -11.466,13.72 -20.717,33.61 -16.154,37.693 2.73,2.443 9.411,-1.693 20.941,-7.778 23.454,-12.379 46.17,-24.369 62.822,-27.522 12.399,-2.348 30.926,-1.594 56.32,13.855 -23.234,-2.338 -56.47,-1.767 -91.421,12.869 C 42.85,-68.853 8.566,-54.45 0.696,-23.545 -1.713,-14.082 -0.991,-5.643 0,0"
             style="fill:#100f0d;fill-opacity:1;fill-rule:nonzero;stroke:none"
             id="path54"
             inkscape:connector-curvature="0" /></g><g
           id="g56"
           transform="translate(892.3856,250.4427)"><path
             d="m 0,0 c -13.212,-13.774 -34.345,-9.604 -35.051,-15.716 -0.462,-3.99 8.182,-8.892 15.649,-10.446 16.953,-3.528 37.965,8.317 41.882,25.398 3.103,13.532 -4.892,28.561 -9.539,28.263 C 8.258,27.198 11.128,11.602 0,0"
             style="fill:#ffffff;fill-opacity:1;fill-rule:nonzero;stroke:none"
             id="path58"
             inkscape:connector-curvature="0" /></g><g
           id="g60"
           transform="translate(849.0093,267.0974)"><path
             d="M 0,0 C 29.328,10.207 41.027,36.061 46.292,32.725 50.948,29.775 46.141,6.803 31.337,-8.416 13.39,-26.864 -15.552,-30.122 -36.947,-21.807 -49.254,-17.024 -61.995,-7.272 -60.406,-2.85 -58.154,3.417 -30.564,-10.637 0,0"
             style="fill:#ffffff;fill-opacity:1;fill-rule:nonzero;stroke:none"
             id="path62"
             inkscape:connector-curvature="0" /></g><g
           id="g64"
           transform="translate(958.7546,429.0481)"><path
             d="m 0,0 c 0.937,0.382 2.833,-2.688 4.969,-5.42 2.268,-2.902 5.788,-6.676 11.235,-10.389 1.931,-1.362 4.377,-2.852 7.34,-4.178 3.792,-1.696 7.266,-2.599 10.015,-3.1 1.68,-0.675 1.728,-1.281 1.728,-1.416 0,-0.775 -1.596,-1.552 -4.008,-1.976 -1.095,-0.165 -16.017,-2.182 -24.956,7.621 C 1.285,-13.331 0.089,-6.178 -0.169,-4.63 -0.349,-3.556 -0.883,-0.36 0,0"
             style="fill:#100f0d;fill-opacity:1;fill-rule:nonzero;stroke:none"
             id="path66"
             inkscape:connector-curvature="0" /></g><g
           id="g68"
           transform="translate(925.394,364.5219)"><path
             d="m 0,0 c 4.823,-5.678 10.351,-13.077 17.184,-25.52 5.21,-9.487 11.795,-22.997 17.607,-40.262 9.053,24.649 19.777,43.06 28.324,55.725 C 70.752,1.26 87.293,23.756 91.57,21.448 94.224,20.016 91.117,9.511 89.538,4.171 83.483,-16.301 73.639,-29.8 63.115,-44.61 56.921,-53.327 47.213,-67.11 35.057,-84.928 20.135,-68.911 9.586,-54.111 2.43,-42.884 c -3.023,4.743 -10.341,16.981 -17.568,33.843 -2.997,6.992 -10.758,25.102 -7.114,27.44 C -18.049,21.094 -1.079,1.271 0,0"
             style="fill:#ffffff;fill-opacity:1;fill-rule:nonzero;stroke:none"
             id="path70"
             inkscape:connector-curvature="0" /></g><g
           id="g72"
           transform="translate(960.1855,387.0232)"><path
             d="m 0,0 c -2.064,-2.816 -5.126,-6.401 -9.448,-9.861 -4.526,-3.625 -8.895,-5.882 -12.195,-7.284 3.667,-5.046 7.557,-11.135 11.179,-18.293 5.281,-10.438 8.475,-20.149 10.464,-28.116 1.566,7.055 4.139,15.762 8.506,25.237 4.017,8.716 8.511,15.826 12.534,21.342 -3.035,1.276 -6.947,3.281 -11.01,6.436 C 5.287,-6.855 2.064,-2.944 0,0"
             style="fill:#f16319;fill-opacity:1;fill-rule:nonzero;stroke:none"
             id="path74"
             inkscape:connector-curvature="0" /></g><g
           id="g76"
           transform="translate(880.1735,328.9896)"><path
             d="m 0,0 c 4.832,-5.584 -4.534,-26.446 -20.19,-39.44 -0.317,-0.264 -1.233,-1.004 -2.45,-1.923 -12.769,-9.643 -33.098,-16.701 -49.895,-13.58 -31.016,5.764 -50.619,46.602 -44.074,54.105 5.34,6.122 24.211,-15.322 58.385,-14.557 C -24.916,-14.649 -5.658,6.539 0,0"
             style="fill:#ffffff;fill-opacity:1;fill-rule:nonzero;stroke:none"
             id="path78"
             inkscape:connector-curvature="0" /></g><g
           id="g80"
           transform="translate(892.3165,250.702)"><path
             d="m 0,0 c -13.212,-13.774 -34.345,-9.604 -35.051,-15.716 -0.462,-3.99 8.182,-8.892 15.649,-10.446 16.953,-3.527 37.965,8.317 41.882,25.398 3.103,13.532 -4.892,28.561 -9.539,28.263 C 8.259,27.198 11.128,11.602 0,0"
             style="fill:#100f0d;fill-opacity:1;fill-rule:nonzero;stroke:none"
             id="path82"
             inkscape:connector-curvature="0" /></g><g
           id="g84"
           transform="translate(848.9402,267.3567)"><path
             d="M 0,0 C 29.328,10.207 41.027,36.061 46.292,32.725 50.948,29.775 46.141,6.803 31.337,-8.416 13.39,-26.864 -15.552,-30.122 -36.947,-21.807 -49.254,-17.024 -61.995,-7.272 -60.406,-2.85 -58.154,3.417 -30.564,-10.637 0,0"
             style="fill:#100f0d;fill-opacity:1;fill-rule:nonzero;stroke:none"
             id="path86"
             inkscape:connector-curvature="0" /></g><g
           id="g88"
           transform="translate(880.1044,329.249)"><path
             d="m 0,0 c 4.832,-5.585 -4.533,-26.446 -20.19,-39.441 -0.317,-0.263 -1.233,-1.003 -2.45,-1.922 -12.769,-9.643 -33.098,-16.702 -49.895,-13.58 -31.016,5.764 -50.619,46.602 -44.074,54.105 5.34,6.122 24.211,-15.323 58.385,-14.557 C -24.915,-14.649 -5.658,6.539 0,0"
             style="fill:#100f0d;fill-opacity:1;fill-rule:nonzero;stroke:none"
             id="path90"
             inkscape:connector-curvature="0" /></g><g
           id="g92"
           transform="translate(1027.4501,251.4375)"><path
             d="m 0,0 c 13.121,-13.774 34.108,-9.604 34.81,-15.716 0.458,-3.99 -8.126,-8.892 -15.542,-10.446 -16.835,-3.528 -37.703,8.317 -41.593,25.398 -3.082,13.532 4.859,28.561 9.473,28.262 C -8.201,27.198 -11.051,11.602 0,0"
             style="fill:#100f0d;fill-opacity:1;fill-rule:nonzero;stroke:none"
             id="path94"
             inkscape:connector-curvature="0" /></g><g
           id="g96"
           transform="translate(1070.5271,268.0922)"><path
             d="m 0,0 c -29.125,10.207 -40.744,36.061 -45.973,32.725 -4.623,-2.95 0.15,-25.922 14.853,-41.141 17.822,-18.448 46.565,-21.706 67.813,-13.391 12.221,4.783 24.875,14.535 23.297,18.956 C 57.753,3.417 30.353,-10.637 0,0"
             style="fill:#100f0d;fill-opacity:1;fill-rule:nonzero;stroke:none"
             id="path98"
             inkscape:connector-curvature="0" /></g><g
           id="g100"
           transform="translate(1039.578,329.9844)"><path
             d="m 0,0 c -4.799,-5.584 4.502,-26.446 20.05,-39.441 0.316,-0.263 1.225,-1.003 2.434,-1.922 12.681,-9.643 32.869,-16.702 49.551,-13.58 30.802,5.764 50.27,46.602 43.769,54.105 C 110.501,5.284 91.76,-16.161 57.823,-15.395 24.744,-14.649 5.619,6.539 0,0"
             style="fill:#100f0d;fill-opacity:1;fill-rule:nonzero;stroke:none"
             id="path102"
             inkscape:connector-curvature="0" /></g><g
           id="g104"
           transform="translate(942.0953,449.8544)"><path
             d="m 0,0 c 1.837,0.075 5.04,-0.046 8.582,-1.581 2.259,-0.979 3.941,-2.225 5.077,-3.222 0.528,-0.957 1.582,-2.575 3.462,-3.991 1.983,-1.493 3.94,-2.049 5.024,-2.274 -0.256,1.613 -0.512,3.227 -0.768,4.841 0.936,-0.157 2.309,-0.485 3.79,-1.254 3.472,-1.804 5.177,-4.812 5.886,-6.013 5.164,-8.757 13.09,-16.071 14.228,-17.107 2.832,-2.581 5.138,-4.118 9.823,-7.114 5.333,-3.409 13.031,-7.765 23.102,-11.686 -4.475,-0.347 -12.761,-1.591 -21.539,-6.781 -7.522,-4.447 -12.227,-9.913 -14.774,-13.376 -6.203,5.105 -11.256,9.008 -14.567,11.517 -7.961,6.035 -12.838,9.312 -14.227,15.358 -0.011,0.045 -0.027,0.115 -0.047,0.205 -0.422,1.944 -0.381,4.684 0.498,5.328 1.371,1.003 6.655,-1.724 7.708,-4.798 1.389,-4.056 -3.562,-11.725 -28.146,-27.271 -3.084,3.209 -7.735,7.171 -14.228,9.823 -5.809,2.374 -11.079,2.877 -11.01,3.557 0.082,0.799 7.158,-0.557 14.906,1.186 14.607,3.287 21.664,20.047 22.189,21.342 1.254,3.097 3.762,9.573 2.371,17.954 C 6.063,-7.668 2.113,-2.424 0,0"
             style="fill:#ffffff;fill-opacity:1;fill-rule:nonzero;stroke:none"
             id="path106"
             inkscape:connector-curvature="0" /></g></g></g></g></svg>